<?xml version="1.0" encoding="utf-8"?>
<!DOCTYPE svg PUBLIC "-//W3C//DTD SVG 1.1//EN" "http://www.w3.org/Graphics/SVG/1.1/DTD/svg11.dtd">
<svg style="" version="1.1" xmlns="http://www.w3.org/2000/svg" xmlns:xlink="http://www.w3.org/1999/xlink" preserveAspectRatio="xMidYMid" viewBox="-0.9852443342265209 -0.9852443596310501 1.970488736333059 1.9704887048623756" width="1280px" height="720px"><g><polygon style="fill: rgba(0, 0, 255, 0.267); stroke: blue; stroke-width: 0.05%; visibility: hidden;" points="0.6,0 -0.9659258007497356,0.25881914041658916 7.1549282728836204e-9,-0.5999999999999999"/><polygon style="fill: rgba(0, 0, 255, 0.267); stroke: blue; stroke-width: 0.05%; visibility: hidden;" points="0.5196152378995241,0.3000000075710348 -0.9659258007497356,0.25881914041658916 7.1549282728836204e-9,-0.5999999999999999"/><polygon style="fill: rgba(0, 0, 255, 0.267); stroke: blue; stroke-width: 0.05%; visibility: hidden;" points="0.6,0 0.5196152378995241,0.3000000075710348 7.1549282728836204e-9,-0.5999999999999999"/><polygon style="fill: rgba(0, 0, 255, 0.267); stroke: blue; stroke-width: 0.05%; visibility: hidden;" points="0.6,0 7.1549282728836204e-9,-0.5999999999999999 0.5196151830648215,-0.30000010254750253"/><polygon style="fill: rgba(0, 0, 255, 0.267); stroke: blue; stroke-width: 0.05%; visibility: hidden;" points="-0.30000003028413885,0.5196152247861062 -0.9659258007497356,0.25881914041658916 7.1549282728836204e-9,-0.5999999999999999"/><polygon style="fill: rgba(0, 0, 255, 0.267); stroke: blue; stroke-width: 0.05%; visibility: hidden;" points="0.6,0 -0.30000003028413885,0.5196152247861062 7.1549282728836204e-9,-0.5999999999999999"/><polygon style="fill: rgba(0, 0, 255, 0.267); stroke: blue; stroke-width: 0.05%; visibility: hidden;" points="0.6,0 0.5196152378995241,0.3000000075710348 -0.30000003028413885,0.5196152247861062"/><polygon style="fill: rgba(0, 0, 255, 0.267); stroke: blue; stroke-width: 0.05%; visibility: visible;" points="-0.30000003028413885,0.5196152247861062 -0.5196152474354769,-0.29999999105427994 7.1549282728836204e-9,-0.5999999999999999"/><polygon style="fill: rgba(0, 0, 255, 0.267); stroke: blue; stroke-width: 0.05%; visibility: hidden;" points="-0.30000003028413885,0.5196152247861062 -0.9659258007497356,0.25881914041658916 -0.5196152474354769,-0.29999999105427994"/><polygon style="fill: rgba(0, 0, 255, 0.267); stroke: blue; stroke-width: 0.05%; visibility: hidden;" points="0.6,0 0.7071067657322372,0.7071067966408575 0.5196152378995241,0.3000000075710348"/><polygon style="fill: rgba(0, 0, 255, 0.267); stroke: blue; stroke-width: 0.05%; visibility: hidden;" points="0.5196152378995241,0.3000000075710348 0.7071067657322372,0.7071067966408575 -0.30000003028413885,0.5196152247861062"/><polygon style="fill: rgba(0, 0, 255, 0.267); stroke: blue; stroke-width: 0.05%; visibility: hidden;" points="0.5196152378995241,0.3000000075710348 0.25881906749121936,0.9659258202900343 -0.30000003028413885,0.5196152247861062"/><polygon style="fill: rgba(0, 0, 255, 0.267); stroke: blue; stroke-width: 0.05%; visibility: hidden;" points="0.5196152378995241,0.3000000075710348 0.7071067657322372,0.7071067966408575 0.25881906749121936,0.9659258202900343"/><polygon style="fill: rgba(0, 0, 255, 0.267); stroke: blue; stroke-width: 0.05%; visibility: hidden;" points="-0.30000003028413885,0.5196152247861062 0.25881906749121936,0.9659258202900343 -0.9659258007497356,0.25881914041658916"/><polygon style="fill: rgba(0, 0, 255, 0.267); stroke: blue; stroke-width: 0.05%; visibility: hidden;" points="0.5196152378995241,0.3000000075710348 0.9659258850836648,-0.25881882567799974 0.7071067657322372,0.7071067966408575"/><polygon style="fill: rgba(0, 0, 255, 0.267); stroke: blue; stroke-width: 0.05%; visibility: hidden;" points="0.6,0 0.9659258850836648,-0.25881882567799974 0.5196152378995241,0.3000000075710348"/><polygon style="fill: rgba(0, 0, 255, 0.267); stroke: blue; stroke-width: 0.05%; visibility: visible;" points="0.6,0 0.5196151830648215,-0.30000010254750253 0.9659258850836648,-0.25881882567799974"/><polygon style="fill: rgba(0, 0, 255, 0.267); stroke: blue; stroke-width: 0.05%; visibility: hidden;" points="7.1549282728836204e-9,-0.5999999999999999 0.9659258850836648,-0.25881882567799974 0.5196151830648215,-0.30000010254750253"/><polygon style="fill: rgba(0, 0, 255, 0.267); stroke: blue; stroke-width: 0.05%; visibility: hidden;" points="0.2999999518244193,-0.5196152700848446 0.9659258850836648,-0.25881882567799974 0.5196151830648215,-0.30000010254750253"/><polygon style="fill: rgba(0, 0, 255, 0.267); stroke: blue; stroke-width: 0.05%; visibility: visible;" points="7.1549282728836204e-9,-0.5999999999999999 0.2999999518244193,-0.5196152700848446 0.5196151830648215,-0.30000010254750253"/><polygon style="fill: rgba(0, 0, 255, 0.267); stroke: blue; stroke-width: 0.05%; visibility: hidden;" points="-0.30000003028413885,0.5196152247861062 -0.25881903678780893,0.9659258285169886 -0.9659258007497356,0.25881914041658916"/><polygon style="fill: rgba(0, 0, 255, 0.267); stroke: blue; stroke-width: 0.05%; visibility: hidden;" points="-0.30000003028413885,0.5196152247861062 0.25881906749121936,0.9659258202900343 -0.25881903678780893,0.9659258285169886"/><polygon style="fill: rgba(0, 0, 255, 0.267); stroke: blue; stroke-width: 0.05%; visibility: hidden;" points="-0.30000003028413885,0.5196152247861062 -0.7071067854026294,0.7071067769704656 -0.9659258007497356,0.25881914041658916"/><polygon style="fill: rgba(0, 0, 255, 0.267); stroke: blue; stroke-width: 0.05%; visibility: hidden;" points="-0.30000003028413885,0.5196152247861062 -0.25881903678780893,0.9659258285169886 -0.7071067854026294,0.7071067769704656"/><polygon style="fill: rgba(0, 0, 255, 0.267); stroke: blue; stroke-width: 0.05%; visibility: visible;" points="-0.5196152474354769,-0.29999999105427994 -0.29999993943171926,-0.5196152772397716 7.1549282728836204e-9,-0.5999999999999999"/><polygon style="fill: rgba(0, 0, 255, 0.267); stroke: blue; stroke-width: 0.05%; visibility: hidden;" points="-0.5196152474354769,-0.29999999105427994 -0.9659258172036478,-0.2588190790097693 -0.29999993943171926,-0.5196152772397716"/><polygon style="fill: rgba(0, 0, 255, 0.267); stroke: blue; stroke-width: 0.05%; visibility: hidden;" points="-0.5196152474354769,-0.29999999105427994 -0.9659258007497356,0.25881914041658916 -0.9659258172036478,-0.2588190790097693"/><polygon style="fill: rgba(0, 0, 255, 0.267); stroke: blue; stroke-width: 0.05%; visibility: hidden;" points="0.5196152378995241,0.3000000075710348 0.9659258244035116,0.25881905213951417 0.7071067657322372,0.7071067966408575"/><polygon style="fill: rgba(0, 0, 255, 0.267); stroke: blue; stroke-width: 0.05%; visibility: visible;" points="0.6,0 0.9659258244035116,0.25881905213951417 0.5196152378995241,0.3000000075710348"/><polygon style="fill: rgba(0, 0, 255, 0.267); stroke: blue; stroke-width: 0.05%; visibility: hidden;" points="0.6,0 0.9659258850836648,-0.25881882567799974 0.9659258244035116,0.25881905213951417"/><polygon style="fill: rgba(0, 0, 255, 0.267); stroke: blue; stroke-width: 0.05%; visibility: visible;" points="0.29999998485793017,0.5196152510129409 -0.30000003028413885,0.5196152247861062 7.1549282728836204e-9,-0.5999999999999999"/><polygon style="fill: rgba(0, 0, 255, 0.267); stroke: blue; stroke-width: 0.05%; visibility: visible;" points="0.29999998485793017,0.5196152510129409 7.1549282728836204e-9,-0.5999999999999999 0.5196151830648215,-0.30000010254750253"/><polygon style="fill: rgba(0, 0, 255, 0.267); stroke: blue; stroke-width: 0.05%; visibility: visible;" points="0.6,0 0.29999998485793017,0.5196152510129409 0.5196151830648215,-0.30000010254750253"/><polygon style="fill: rgba(0, 0, 255, 0.267); stroke: blue; stroke-width: 0.05%; visibility: visible;" points="0.6,0 0.5196152378995241,0.3000000075710348 0.29999998485793017,0.5196152510129409"/><polygon style="fill: rgba(0, 0, 255, 0.267); stroke: blue; stroke-width: 0.05%; visibility: visible;" points="0.5196152378995241,0.3000000075710348 0.7071067657322372,0.7071067966408575 0.29999998485793017,0.5196152510129409"/><polygon style="fill: rgba(0, 0, 255, 0.267); stroke: blue; stroke-width: 0.05%; visibility: hidden;" points="0.29999998485793017,0.5196152510129409 0.7071067657322372,0.7071067966408575 0.25881906749121936,0.9659258202900343"/><polygon style="fill: rgba(0, 0, 255, 0.267); stroke: blue; stroke-width: 0.05%; visibility: hidden;" points="0.29999998485793017,0.5196152510129409 0.25881906749121936,0.9659258202900343 -0.25881903678780893,0.9659258285169886"/><polygon style="fill: rgba(0, 0, 255, 0.267); stroke: blue; stroke-width: 0.05%; visibility: hidden;" points="0.29999998485793017,0.5196152510129409 -0.25881903678780893,0.9659258285169886 -0.30000003028413885,0.5196152247861062"/><polygon style="fill: rgba(0, 0, 255, 0.267); stroke: blue; stroke-width: 0.05%; visibility: hidden;" points="0.5196151830648215,-0.30000010254750253 0.7071066786324686,-0.7071068837406116 0.9659258850836648,-0.25881882567799974"/><polygon style="fill: rgba(0, 0, 255, 0.267); stroke: blue; stroke-width: 0.05%; visibility: visible;" points="0.2999999518244193,-0.5196152700848446 0.7071066786324686,-0.7071068837406116 0.5196151830648215,-0.30000010254750253"/><polygon style="fill: rgba(0, 0, 255, 0.267); stroke: blue; stroke-width: 0.05%; visibility: hidden;" points="7.1549282728836204e-9,-0.5999999999999999 0.7071066786324686,-0.7071068837406116 0.2999999518244193,-0.5196152700848446"/><polygon style="fill: rgba(0, 0, 255, 0.267); stroke: blue; stroke-width: 0.05%; visibility: hidden;" points="0.2999999518244193,-0.5196152700848446 0.25881900608439823,-0.9659258367439418 0.7071066786324686,-0.7071068837406116"/><polygon style="fill: rgba(0, 0, 255, 0.267); stroke: blue; stroke-width: 0.05%; visibility: visible;" points="7.1549282728836204e-9,-0.5999999999999999 0.25881900608439823,-0.9659258367439418 0.2999999518244193,-0.5196152700848446"/><polygon style="fill: rgba(0, 0, 255, 0.267); stroke: blue; stroke-width: 0.05%; visibility: hidden;" points="-0.29999993943171926,-0.5196152772397716 0.25881900608439823,-0.9659258367439418 7.1549282728836204e-9,-0.5999999999999999"/><polygon style="fill: rgba(0, 0, 255, 0.267); stroke: blue; stroke-width: 0.05%; visibility: hidden;" points="-0.29999993943171926,-0.5196152772397716 -0.9659258172036478,-0.2588190790097693 0.25881900608439823,-0.9659258367439418"/><polygon style="fill: rgba(0, 0, 255, 0.267); stroke: blue; stroke-width: 0.05%; visibility: visible;" points="0.29999998485793017,0.5196152510129409 -2.6226834001117445e-8,0.5999999999999994 -0.30000003028413885,0.5196152247861062"/><polygon style="fill: rgba(0, 0, 255, 0.267); stroke: blue; stroke-width: 0.05%; visibility: visible;" points="0.29999998485793017,0.5196152510129409 0.25881906749121936,0.9659258202900343 -2.6226834001117445e-8,0.5999999999999994"/><polygon style="fill: rgba(0, 0, 255, 0.267); stroke: blue; stroke-width: 0.05%; visibility: hidden;" points="-2.6226834001117445e-8,0.5999999999999994 0.25881906749121936,0.9659258202900343 -0.25881903678780893,0.9659258285169886"/><polygon style="fill: rgba(0, 0, 255, 0.267); stroke: blue; stroke-width: 0.05%; visibility: visible;" points="-2.6226834001117445e-8,0.5999999999999994 -0.25881903678780893,0.9659258285169886 -0.30000003028413885,0.5196152247861062"/><polygon style="fill: rgba(0, 0, 255, 0.267); stroke: blue; stroke-width: 0.05%; visibility: visible;" points="-0.30000003028413885,0.5196152247861062 -0.5196152283635708,0.30000002408778936 -0.5196152474354769,-0.29999999105427994"/><polygon style="fill: rgba(0, 0, 255, 0.267); stroke: blue; stroke-width: 0.05%; visibility: visible;" points="-0.30000003028413885,0.5196152247861062 -0.7071067854026294,0.7071067769704656 -0.5196152283635708,0.30000002408778936"/><polygon style="fill: rgba(0, 0, 255, 0.267); stroke: blue; stroke-width: 0.05%; visibility: hidden;" points="-0.5196152283635708,0.30000002408778936 -0.7071067854026294,0.7071067769704656 -0.9659258007497356,0.25881914041658916"/><polygon style="fill: rgba(0, 0, 255, 0.267); stroke: blue; stroke-width: 0.05%; visibility: hidden;" points="-0.5196152283635708,0.30000002408778936 -0.9659258007497356,0.25881914041658916 -0.5196152474354769,-0.29999999105427994"/><polygon style="fill: rgba(0, 0, 255, 0.267); stroke: blue; stroke-width: 0.05%; visibility: hidden;" points="7.1549282728836204e-9,-0.5999999999999999 -0.2588189830472979,-0.965925842916713 0.25881900608439823,-0.9659258367439418"/><polygon style="fill: rgba(0, 0, 255, 0.267); stroke: blue; stroke-width: 0.05%; visibility: visible;" points="-0.29999993943171926,-0.5196152772397716 -0.2588189830472979,-0.965925842916713 7.1549282728836204e-9,-0.5999999999999999"/><polygon style="fill: rgba(0, 0, 255, 0.267); stroke: blue; stroke-width: 0.05%; visibility: hidden;" points="-0.5196152474354769,-0.29999999105427994 -0.2588189830472979,-0.965925842916713 -0.29999993943171926,-0.5196152772397716"/><polygon style="fill: rgba(0, 0, 255, 0.267); stroke: blue; stroke-width: 0.05%; visibility: hidden;" points="-0.5196152474354769,-0.29999999105427994 -0.9659258172036478,-0.2588190790097693 -0.2588189830472979,-0.965925842916713"/><polygon style="fill: rgba(0, 0, 255, 0.267); stroke: blue; stroke-width: 0.05%; visibility: visible;" points="-0.5196152283635708,0.30000002408778936 -0.5999999999999978,-5.2453668002234845e-8 -0.5196152474354769,-0.29999999105427994"/><polygon style="fill: rgba(0, 0, 255, 0.267); stroke: blue; stroke-width: 0.05%; visibility: visible;" points="-0.5196152283635708,0.30000002408778936 -0.9659258007497356,0.25881914041658916 -0.5999999999999978,-5.2453668002234845e-8"/><polygon style="fill: rgba(0, 0, 255, 0.267); stroke: blue; stroke-width: 0.05%; visibility: hidden;" points="-0.5999999999999978,-5.2453668002234845e-8 -0.9659258007497356,0.25881914041658916 -0.9659258172036478,-0.2588190790097693"/><polygon style="fill: rgba(0, 0, 255, 0.267); stroke: blue; stroke-width: 0.05%; visibility: visible;" points="-0.5999999999999978,-5.2453668002234845e-8 -0.9659258172036478,-0.2588190790097693 -0.5196152474354769,-0.29999999105427994"/><polygon style="fill: rgba(0, 0, 255, 0.267); stroke: blue; stroke-width: 0.05%; visibility: hidden;" points="-0.29999993943171926,-0.5196152772397716 -0.7071068303555407,-0.707106732017551 -0.2588189830472979,-0.965925842916713"/><polygon style="fill: rgba(0, 0, 255, 0.267); stroke: blue; stroke-width: 0.05%; visibility: visible;" points="-0.5196152474354769,-0.29999999105427994 -0.7071068303555407,-0.707106732017551 -0.29999993943171926,-0.5196152772397716"/><polygon style="fill: rgba(0, 0, 255, 0.267); stroke: blue; stroke-width: 0.05%; visibility: hidden;" points="-0.5196152474354769,-0.29999999105427994 -0.9659258172036478,-0.2588190790097693 -0.7071068303555407,-0.707106732017551"/></g><g style="pointer-events: none;"><line style="stroke: red; stroke-width: 0.25%; visibility: visible;" x1="0.6" y1="0" x2="0.9659258244035116" y2="0.25881905213951417"/><line style="stroke: red; stroke-width: 0.25%; visibility: visible;" x1="0.5196152378995241" y1="0.3000000075710348" x2="0.9659258244035116" y2="0.25881905213951417"/><line style="stroke: red; stroke-width: 0.25%; visibility: visible;" x1="0.5196152378995241" y1="0.3000000075710348" x2="0.7071067657322372" y2="0.7071067966408575"/><line style="stroke: red; stroke-width: 0.25%; visibility: visible;" x1="0.29999998485793017" y1="0.5196152510129409" x2="0.7071067657322372" y2="0.7071067966408575"/><line style="stroke: red; stroke-width: 0.25%; visibility: visible;" x1="0.29999998485793017" y1="0.5196152510129409" x2="0.25881906749121936" y2="0.9659258202900343"/><line style="stroke: red; stroke-width: 0.25%; visibility: visible;" x1="-2.6226834001117445e-8" y1="0.5999999999999994" x2="0.25881906749121936" y2="0.9659258202900343"/><line style="stroke: red; stroke-width: 0.25%; visibility: visible;" x1="-2.6226834001117445e-8" y1="0.5999999999999994" x2="-0.25881903678780893" y2="0.9659258285169886"/><line style="stroke: red; stroke-width: 0.25%; visibility: visible;" x1="-0.30000003028413885" y1="0.5196152247861062" x2="-0.25881903678780893" y2="0.9659258285169886"/><line style="stroke: red; stroke-width: 0.25%; visibility: visible;" x1="-0.30000003028413885" y1="0.5196152247861062" x2="-0.7071067854026294" y2="0.7071067769704656"/><line style="stroke: red; stroke-width: 0.25%; visibility: visible;" x1="-0.5196152283635708" y1="0.30000002408778936" x2="-0.7071067854026294" y2="0.7071067769704656"/><line style="stroke: red; stroke-width: 0.25%; visibility: visible;" x1="-0.5196152283635708" y1="0.30000002408778936" x2="-0.9659258007497356" y2="0.25881914041658916"/><line style="stroke: red; stroke-width: 0.25%; visibility: visible;" x1="-0.5999999999999978" y1="-5.2453668002234845e-8" x2="-0.9659258007497356" y2="0.25881914041658916"/><line style="stroke: red; stroke-width: 0.25%; visibility: visible;" x1="-0.5999999999999978" y1="-5.2453668002234845e-8" x2="-0.9659258172036478" y2="-0.2588190790097693"/><line style="stroke: red; stroke-width: 0.25%; visibility: visible;" x1="-0.5196152474354769" y1="-0.29999999105427994" x2="-0.9659258172036478" y2="-0.2588190790097693"/><line style="stroke: red; stroke-width: 0.25%; visibility: visible;" x1="-0.5196152474354769" y1="-0.29999999105427994" x2="-0.7071068303555407" y2="-0.707106732017551"/><line style="stroke: red; stroke-width: 0.25%; visibility: visible;" x1="-0.29999993943171926" y1="-0.5196152772397716" x2="-0.7071068303555407" y2="-0.707106732017551"/><line style="stroke: red; stroke-width: 0.25%; visibility: visible;" x1="-0.29999993943171926" y1="-0.5196152772397716" x2="-0.2588189830472979" y2="-0.965925842916713"/><line style="stroke: red; stroke-width: 0.25%; visibility: visible;" x1="7.1549282728836204e-9" y1="-0.5999999999999999" x2="-0.2588189830472979" y2="-0.965925842916713"/><line style="stroke: red; stroke-width: 0.25%; visibility: visible;" x1="7.1549282728836204e-9" y1="-0.5999999999999999" x2="0.25881900608439823" y2="-0.9659258367439418"/><line style="stroke: red; stroke-width: 0.25%; visibility: visible;" x1="0.2999999518244193" y1="-0.5196152700848446" x2="0.25881900608439823" y2="-0.9659258367439418"/><line style="stroke: red; stroke-width: 0.25%; visibility: visible;" x1="0.2999999518244193" y1="-0.5196152700848446" x2="0.7071066786324686" y2="-0.7071068837406116"/><line style="stroke: red; stroke-width: 0.25%; visibility: visible;" x1="0.5196151830648215" y1="-0.30000010254750253" x2="0.7071066786324686" y2="-0.7071068837406116"/><line style="stroke: red; stroke-width: 0.25%; visibility: visible;" x1="0.5196151830648215" y1="-0.30000010254750253" x2="0.9659258850836648" y2="-0.25881882567799974"/><line style="stroke: red; stroke-width: 0.25%; visibility: visible;" x1="0.6" y1="0" x2="0.9659258850836648" y2="-0.25881882567799974"/></g><circle fill="#00FF0088" style="pointer-events: none;"/><g><circle cx="0.6" cy="0" r="0.2%" fill="black" style="visibility: visible;"/><circle cx="0.5196152378995241" cy="0.3000000075710348" r="0.2%" fill="black" style="visibility: visible;"/><circle cx="0.29999998485793017" cy="0.5196152510129409" r="0.2%" fill="black" style="visibility: visible;"/><circle cx="-2.6226834001117445e-8" cy="0.5999999999999994" r="0.2%" fill="black" style="visibility: visible;"/><circle cx="-0.30000003028413885" cy="0.5196152247861062" r="0.2%" fill="black" style="visibility: visible;"/><circle cx="-0.5196152283635708" cy="0.30000002408778936" r="0.2%" fill="black" style="visibility: visible;"/><circle cx="-0.5999999999999978" cy="-5.2453668002234845e-8" r="0.2%" fill="black" style="visibility: visible;"/><circle cx="-0.5196152474354769" cy="-0.29999999105427994" r="0.2%" fill="black" style="visibility: visible;"/><circle cx="-0.29999993943171926" cy="-0.5196152772397716" r="0.2%" fill="black" style="visibility: visible;"/><circle cx="7.1549282728836204e-9" cy="-0.5999999999999999" r="0.2%" fill="black" style="visibility: visible;"/><circle cx="0.2999999518244193" cy="-0.5196152700848446" r="0.2%" fill="black" style="visibility: visible;"/><circle cx="0.5196151830648215" cy="-0.30000010254750253" r="0.2%" fill="black" style="visibility: visible;"/><circle cx="0.9659258244035116" cy="0.25881905213951417" r="0.2%" fill="black" style="visibility: visible;"/><circle cx="0.7071067657322372" cy="0.7071067966408575" r="0.2%" fill="black" style="visibility: visible;"/><circle cx="0.25881906749121936" cy="0.9659258202900343" r="0.2%" fill="black" style="visibility: visible;"/><circle cx="-0.25881903678780893" cy="0.9659258285169886" r="0.2%" fill="black" style="visibility: visible;"/><circle cx="-0.7071067854026294" cy="0.7071067769704656" r="0.2%" fill="black" style="visibility: visible;"/><circle cx="-0.9659258007497356" cy="0.25881914041658916" r="0.2%" fill="black" style="visibility: visible;"/><circle cx="-0.9659258172036478" cy="-0.2588190790097693" r="0.2%" fill="black" style="visibility: visible;"/><circle cx="-0.7071068303555407" cy="-0.707106732017551" r="0.2%" fill="black" style="visibility: visible;"/><circle cx="-0.2588189830472979" cy="-0.965925842916713" r="0.2%" fill="black" style="visibility: visible;"/><circle cx="0.25881900608439823" cy="-0.9659258367439418" r="0.2%" fill="black" style="visibility: visible;"/><circle cx="0.7071066786324686" cy="-0.7071068837406116" r="0.2%" fill="black" style="visibility: visible;"/><circle cx="0.9659258850836648" cy="-0.25881882567799974" r="0.2%" fill="black" style="visibility: visible;"/></g></svg>