<?xml version="1.0" encoding="utf-8"?>
<!DOCTYPE svg PUBLIC "-//W3C//DTD SVG 1.1//EN" "http://www.w3.org/Graphics/SVG/1.1/DTD/svg11.dtd">
<svg style="" version="1.1" xmlns="http://www.w3.org/2000/svg" xmlns:xlink="http://www.w3.org/1999/xlink" preserveAspectRatio="xMidYMid" viewBox="-0.7212489663164184 -0.7212490205444263 1.4424978680095335 1.4424979539890985" width="1280px" height="720px"><g><polygon style="fill: rgba(0, 0, 255, 0.267); stroke: blue; stroke-width: 0.05%; visibility: hidden;" points="0.3535533828661186,0.35355339832042876 -0.3535533927013147,0.3535533884852328 0,0"/><polygon style="fill: rgba(0, 0, 255, 0.267); stroke: blue; stroke-width: 0.05%; visibility: visible;" points="0.3535533828661186,0.35355339832042876 0.7071067657322372,0.7071067966408575 -0.3535533927013147,0.3535533884852328"/><polygon style="fill: rgba(0, 0, 255, 0.267); stroke: blue; stroke-width: 0.05%; visibility: hidden;" points="-0.3535533927013147,0.3535533884852328 0.7071066786324686,-0.7071068837406116 0,0"/><polygon style="fill: rgba(0, 0, 255, 0.267); stroke: blue; stroke-width: 0.05%; visibility: visible;" points="0.3535533828661186,0.35355339832042876 0.7071066786324686,-0.7071068837406116 0.7071067657322372,0.7071067966408575"/><polygon style="fill: rgba(0, 0, 255, 0.267); stroke: blue; stroke-width: 0.05%; visibility: hidden;" points="0.3535533828661186,0.35355339832042876 0,0 0.7071066786324686,-0.7071068837406116"/><polygon style="fill: rgba(0, 0, 255, 0.267); stroke: blue; stroke-width: 0.05%; visibility: hidden;" points="-0.3535533927013147,0.3535533884852328 -0.7071067854026294,0.7071067769704656 0.7071066786324686,-0.7071068837406116"/><polygon style="fill: rgba(0, 0, 255, 0.267); stroke: blue; stroke-width: 0.05%; visibility: visible;" points="-0.3535533927013147,0.3535533884852328 0.7071067657322372,0.7071067966408575 -0.7071067854026294,0.7071067769704656"/><polygon style="fill: rgba(0, 0, 255, 0.267); stroke: blue; stroke-width: 0.05%; visibility: hidden;" points="-0.35355341517777034,-0.3535533660087755 0.7071066786324686,-0.7071068837406116 0,0"/><polygon style="fill: rgba(0, 0, 255, 0.267); stroke: blue; stroke-width: 0.05%; visibility: hidden;" points="-0.3535533927013147,0.3535533884852328 -0.35355341517777034,-0.3535533660087755 0,0"/><polygon style="fill: rgba(0, 0, 255, 0.267); stroke: blue; stroke-width: 0.05%; visibility: visible;" points="-0.3535533927013147,0.3535533884852328 -0.7071067854026294,0.7071067769704656 -0.35355341517777034,-0.3535533660087755"/><polygon style="fill: rgba(0, 0, 255, 0.267); stroke: blue; stroke-width: 0.05%; visibility: hidden;" points="-0.35355341517777034,-0.3535533660087755 0.3535533393162343,-0.3535534418703058 0,0"/><polygon style="fill: rgba(0, 0, 255, 0.267); stroke: blue; stroke-width: 0.05%; visibility: visible;" points="-0.35355341517777034,-0.3535533660087755 0.7071066786324686,-0.7071068837406116 0.3535533393162343,-0.3535534418703058"/><polygon style="fill: rgba(0, 0, 255, 0.267); stroke: blue; stroke-width: 0.05%; visibility: visible;" points="0.3535533828661186,0.35355339832042876 0.3535533393162343,-0.3535534418703058 0.7071066786324686,-0.7071068837406116"/><polygon style="fill: rgba(0, 0, 255, 0.267); stroke: blue; stroke-width: 0.05%; visibility: hidden;" points="0.3535533828661186,0.35355339832042876 0,0 0.3535533393162343,-0.3535534418703058"/><polygon style="fill: rgba(0, 0, 255, 0.267); stroke: blue; stroke-width: 0.05%; visibility: visible;" points="-0.35355341517777034,-0.3535533660087755 -0.7071068303555407,-0.707106732017551 0.7071066786324686,-0.7071068837406116"/><polygon style="fill: rgba(0, 0, 255, 0.267); stroke: blue; stroke-width: 0.05%; visibility: visible;" points="-0.35355341517777034,-0.3535533660087755 -0.7071067854026294,0.7071067769704656 -0.7071068303555407,-0.707106732017551"/></g><g style="pointer-events: none;"><line style="stroke: red; stroke-width: 0.25%; visibility: visible;" x1="0.3535533828661186" y1="0.35355339832042876" x2="-0.3535533927013147" y2="0.3535533884852328"/><line style="stroke: red; stroke-width: 0.25%; visibility: visible;" x1="-0.3535533927013147" y1="0.3535533884852328" x2="-0.35355341517777034" y2="-0.3535533660087755"/><line style="stroke: red; stroke-width: 0.25%; visibility: visible;" x1="-0.35355341517777034" y1="-0.3535533660087755" x2="0.3535533393162343" y2="-0.3535534418703058"/><line style="stroke: red; stroke-width: 0.25%; visibility: visible;" x1="0.3535533828661186" y1="0.35355339832042876" x2="0.3535533393162343" y2="-0.3535534418703058"/></g><circle fill="#00FF0088" style="pointer-events: none;"/><g><circle cx="0.3535533828661186" cy="0.35355339832042876" r="0.2%" fill="black" style="visibility: visible;"/><circle cx="-0.3535533927013147" cy="0.3535533884852328" r="0.2%" fill="black" style="visibility: visible;"/><circle cx="-0.35355341517777034" cy="-0.3535533660087755" r="0.2%" fill="black" style="visibility: visible;"/><circle cx="0.3535533393162343" cy="-0.3535534418703058" r="0.2%" fill="black" style="visibility: visible;"/><circle cx="0" cy="0" r="0.2%" fill="black" style="visibility: visible;"/><circle cx="0.7071067657322372" cy="0.7071067966408575" r="0.2%" fill="black" style="visibility: visible;"/><circle cx="-0.7071067854026294" cy="0.7071067769704656" r="0.2%" fill="black" style="visibility: visible;"/><circle cx="-0.7071068303555407" cy="-0.707106732017551" r="0.2%" fill="black" style="visibility: visible;"/><circle cx="0.7071066786324686" cy="-0.7071068837406116" r="0.2%" fill="black" style="visibility: visible;"/></g></svg>