<?xml version="1.0" encoding="utf-8"?>
<!DOCTYPE svg PUBLIC "-//W3C//DTD SVG 1.1//EN" "http://www.w3.org/Graphics/SVG/1.1/DTD/svg11.dtd">
<svg style="" version="1.1" xmlns="http://www.w3.org/2000/svg" xmlns:xlink="http://www.w3.org/1999/xlink" preserveAspectRatio="xMidYMid" viewBox="-0.5150000509783004 -0.883345970433384 1.5300000514830363 1.7666918534439926" width="1280px" height="720px"><g><polygon style="fill: rgba(0, 0, 255, 0.267); stroke: blue; stroke-width: 0.05%; visibility: hidden;" points="-0.2500000252367824,0.43301268732175524 -0.24999994952643273,-0.43301273103314303 1,0"/><polygon style="fill: rgba(0, 0, 255, 0.267); stroke: blue; stroke-width: 0.05%; visibility: hidden;" points="0.5,0 -0.24999994952643273,-0.43301273103314303 1,0"/><polygon style="fill: rgba(0, 0, 255, 0.267); stroke: blue; stroke-width: 0.05%; visibility: visible;" points="0.5,0 1,0 -0.2500000252367824,0.43301268732175524"/><polygon style="fill: rgba(0, 0, 255, 0.267); stroke: blue; stroke-width: 0.05%; visibility: hidden;" points="0.5,0 -0.2500000252367824,0.43301268732175524 -0.24999994952643273,-0.43301273103314303"/><polygon style="fill: rgba(0, 0, 255, 0.267); stroke: blue; stroke-width: 0.05%; visibility: visible;" points="-0.2500000252367824,0.43301268732175524 1,0 -0.5000000504735648,0.8660253746435105"/><polygon style="fill: rgba(0, 0, 255, 0.267); stroke: blue; stroke-width: 0.05%; visibility: hidden;" points="-0.2500000252367824,0.43301268732175524 -0.5000000504735648,0.8660253746435105 -0.24999994952643273,-0.43301273103314303"/><polygon style="fill: rgba(0, 0, 255, 0.267); stroke: blue; stroke-width: 0.05%; visibility: visible;" points="-0.2500000252367824,0.43301268732175524 -0.49999989905286546,-0.8660254620662861 -0.24999994952643273,-0.43301273103314303"/><polygon style="fill: rgba(0, 0, 255, 0.267); stroke: blue; stroke-width: 0.05%; visibility: visible;" points="-0.2500000252367824,0.43301268732175524 -0.5000000504735648,0.8660253746435105 -0.49999989905286546,-0.8660254620662861"/><polygon style="fill: rgba(0, 0, 255, 0.267); stroke: blue; stroke-width: 0.05%; visibility: visible;" points="0.5,0 -0.49999989905286546,-0.8660254620662861 1,0"/><polygon style="fill: rgba(0, 0, 255, 0.267); stroke: blue; stroke-width: 0.05%; visibility: visible;" points="0.5,0 -0.24999994952643273,-0.43301273103314303 -0.49999989905286546,-0.8660254620662861"/></g><g style="pointer-events: none;"><line style="stroke: red; stroke-width: 0.25%; visibility: visible;" x1="0.5" y1="0" x2="-0.2500000252367824" y2="0.43301268732175524"/><line style="stroke: red; stroke-width: 0.25%; visibility: visible;" x1="-0.2500000252367824" y1="0.43301268732175524" x2="-0.24999994952643273" y2="-0.43301273103314303"/><line style="stroke: red; stroke-width: 0.25%; visibility: visible;" x1="0.5" y1="0" x2="-0.24999994952643273" y2="-0.43301273103314303"/></g><circle fill="#00FF0088" style="pointer-events: none;"/><g><circle cx="0.5" cy="0" r="0.2%" fill="black" style="visibility: visible;"/><circle cx="-0.2500000252367824" cy="0.43301268732175524" r="0.2%" fill="black" style="visibility: visible;"/><circle cx="-0.24999994952643273" cy="-0.43301273103314303" r="0.2%" fill="black" style="visibility: visible;"/><circle cx="1" cy="0" r="0.2%" fill="black" style="visibility: visible;"/><circle cx="-0.5000000504735648" cy="0.8660253746435105" r="0.2%" fill="black" style="visibility: visible;"/><circle cx="-0.49999989905286546" cy="-0.8660254620662861" r="0.2%" fill="black" style="visibility: visible;"/></g></svg>